<svg width="722" height="75" viewBox="0 0 722 75" fill="none" xmlns="http://www.w3.org/2000/svg">
<path d="M16.1562 60.7031H14.1562V62.7031H16.1562V60.7031ZM46.0156 60.7031H48.0156V58.7031H46.0156V60.7031ZM46.0156 72V74H48.0156V72H46.0156ZM2.09375 72H0.09375V74H2.09375V72ZM2.09375 3.75V1.75H0.09375V3.75H2.09375ZM16.1562 3.75H18.1562V1.75H16.1562V3.75ZM16.1562 62.7031H46.0156V58.7031H16.1562V62.7031ZM44.0156 60.7031V72H48.0156V60.7031H44.0156ZM46.0156 70H2.09375V74H46.0156V70ZM4.09375 72V3.75H0.09375V72H4.09375ZM2.09375 5.75H16.1562V1.75H2.09375V5.75ZM14.1562 3.75V60.7031H18.1562V3.75H14.1562ZM54.125 72H52.125V74H54.125V72ZM54.125 3.75V1.75H52.125V3.75H54.125ZM91.2031 7.82812L90.2047 9.56107L90.2114 9.56497L90.2183 9.56882L91.2031 7.82812ZM102.312 19.3594L100.546 20.2977L100.549 20.3023L102.312 19.3594ZM102.359 56.3906L100.593 55.4518L100.589 55.4605L102.359 56.3906ZM75.2656 72L75.2656 74L75.2761 74L75.2656 72ZM68.1875 15.1406V13.1406H66.1875V15.1406H68.1875ZM68.1875 60.7031H66.1875V62.7031H68.1875V60.7031ZM92.0469 39.8906L94.0468 39.9093L94.0469 39.9V39.8906H92.0469ZM87.7344 20.5312L86.1726 21.7807L86.178 21.7873L87.7344 20.5312ZM56.125 72V3.75H52.125V72H56.125ZM54.125 5.75H75.125V1.75H54.125V5.75ZM75.125 5.75C80.8111 5.75 85.8198 7.03469 90.2047 9.56107L92.2016 6.09518C87.1489 3.18406 81.4389 1.75 75.125 1.75V5.75ZM90.2183 9.56882C94.6239 12.0615 98.0617 15.6208 100.546 20.2977L104.079 18.4211C101.251 13.0979 97.2824 8.96978 92.188 6.08743L90.2183 9.56882ZM100.549 20.3023C103.031 24.946 104.297 30.2713 104.297 36.3281H108.297C108.297 29.6974 106.906 23.7102 104.076 18.4165L100.549 20.3023ZM104.297 36.3281V39.4688H108.297V36.3281H104.297ZM104.297 39.4688C104.297 45.5296 103.045 50.8402 100.593 55.4518L104.125 57.3295C106.924 52.066 108.297 46.0954 108.297 39.4688H104.297ZM100.589 55.4605C98.1685 60.0678 94.7632 63.6134 90.3502 66.1392L92.3373 69.6108C97.4243 66.6991 101.363 62.5885 104.13 57.3207L100.589 55.4605ZM90.3502 66.1392C85.9263 68.6713 80.911 69.9704 75.2552 70L75.2761 74C81.5577 73.9671 87.2612 72.5162 92.3373 69.6108L90.3502 66.1392ZM75.2656 70H54.125V74H75.2656V70ZM66.1875 15.1406V60.7031H70.1875V15.1406H66.1875ZM68.1875 62.7031H74.9844V58.7031H68.1875V62.7031ZM74.9844 62.7031C80.9607 62.7031 85.7893 60.7244 89.1489 56.5701L86.0386 54.0549C83.5857 57.0881 80.0081 58.7031 74.9844 58.7031V62.7031ZM89.1489 56.5701C92.4415 52.4986 93.9819 46.8524 94.0468 39.9093L90.047 39.8719C89.9869 46.3039 88.5585 50.9389 86.0386 54.0549L89.1489 56.5701ZM94.0469 39.8906V36.2812H90.0469V39.8906H94.0469ZM94.0469 36.2812C94.0469 29.1117 92.5679 23.336 89.2908 19.2752L86.178 21.7873C88.6508 24.8515 90.0469 29.5758 90.0469 36.2812H94.0469ZM89.2961 19.2819C85.9639 15.1166 81.1276 13.1406 75.125 13.1406V17.1406C80.1849 17.1406 83.7548 18.7584 86.1726 21.7806L89.2961 19.2819ZM75.125 13.1406H68.1875V17.1406H75.125V13.1406ZM137.938 44.625L139.622 43.5464L138.229 41.3718L136.472 43.2641L137.938 44.625ZM130.625 52.5L129.159 51.1391L128.625 51.7146V52.5H130.625ZM130.625 72V74H132.625V72H130.625ZM116.562 72H114.562V74H116.562V72ZM116.562 3.75V1.75H114.562V3.75H116.562ZM130.625 3.75H132.625V1.75H130.625V3.75ZM130.625 34.6875H128.625V40.8242L132.241 35.866L130.625 34.6875ZM136.812 26.2031L135.231 24.9784L135.214 25.0013L135.197 25.0247L136.812 26.2031ZM154.203 3.75V1.75H153.222L152.622 2.52532L154.203 3.75ZM171.5 3.75L173.062 4.99851L175.658 1.75H171.5V3.75ZM147.266 34.0781L145.703 32.8296L144.797 33.9639L145.595 35.177L147.266 34.0781ZM172.203 72V74H175.912L173.874 70.9011L172.203 72ZM155.469 72L153.785 73.0786L154.375 74H155.469V72ZM136.472 43.2641L129.159 51.1391L132.091 53.8609L139.403 45.9859L136.472 43.2641ZM128.625 52.5V72H132.625V52.5H128.625ZM130.625 70H116.562V74H130.625V70ZM118.562 72V3.75H114.562V72H118.562ZM116.562 5.75H130.625V1.75H116.562V5.75ZM128.625 3.75V34.6875H132.625V3.75H128.625ZM132.241 35.866L138.428 27.3816L135.197 25.0247L129.009 33.509L132.241 35.866ZM138.394 27.4278L155.784 4.97468L152.622 2.52532L135.231 24.9784L138.394 27.4278ZM154.203 5.75H171.5V1.75H154.203V5.75ZM169.938 2.50149L145.703 32.8296L148.828 35.3266L173.062 4.99851L169.938 2.50149ZM145.595 35.177L170.532 73.0989L173.874 70.9011L148.937 32.9792L145.595 35.177ZM172.203 70H155.469V74H172.203V70ZM157.153 70.9214L139.622 43.5464L136.253 45.7036L153.785 73.0786L157.153 70.9214ZM239.938 57.9375L241.833 57.2994L241.374 55.9375H239.938V57.9375ZM215.281 57.9375V55.9375H213.84L213.384 57.305L215.281 57.9375ZM210.594 72V74H212.035L212.491 72.6325L210.594 72ZM195.641 72L193.766 71.3023L192.762 74H195.641V72ZM221.047 3.75V1.75H219.657L219.173 3.05227L221.047 3.75ZM234.078 3.75L235.951 3.04888L235.465 1.75H234.078V3.75ZM259.625 72V74H262.509L261.498 71.2989L259.625 72ZM244.672 72L242.776 72.6381L243.235 74H244.672V72ZM219.078 46.5469L217.18 45.9165L216.306 48.5469H219.078V46.5469ZM236.141 46.5469V48.5469H238.922L238.037 45.9102L236.141 46.5469ZM227.562 21L229.458 20.3634L227.552 14.6859L225.664 20.3696L227.562 21ZM239.938 55.9375H215.281V59.9375H239.938V55.9375ZM213.384 57.305L208.696 71.3675L212.491 72.6325L217.179 58.57L213.384 57.305ZM210.594 70H195.641V74H210.594V70ZM197.515 72.6977L222.921 4.44773L219.173 3.05227L193.766 71.3023L197.515 72.6977ZM221.047 5.75H234.078V1.75H221.047V5.75ZM232.205 4.45112L257.752 72.7011L261.498 71.2989L235.951 3.04888L232.205 4.45112ZM259.625 70H244.672V74H259.625V70ZM246.567 71.3619L241.833 57.2994L238.042 58.5756L242.776 72.6381L246.567 71.3619ZM219.078 48.5469H236.141V44.5469H219.078V48.5469ZM238.037 45.9102L229.458 20.3634L225.667 21.6366L234.245 47.1835L238.037 45.9102ZM225.664 20.3696L217.18 45.9165L220.976 47.1772L229.461 21.6304L225.664 20.3696ZM280.062 60.7031H278.062V62.7031H280.062V60.7031ZM309.922 60.7031H311.922V58.7031H309.922V60.7031ZM309.922 72V74H311.922V72H309.922ZM266 72H264V74H266V72ZM266 3.75V1.75H264V3.75H266ZM280.062 3.75H282.062V1.75H280.062V3.75ZM280.062 62.7031H309.922V58.7031H280.062V62.7031ZM307.922 60.7031V72H311.922V60.7031H307.922ZM309.922 70H266V74H309.922V70ZM268 72V3.75H264V72H268ZM266 5.75H280.062V1.75H266V5.75ZM278.062 3.75V60.7031H282.062V3.75H278.062ZM343.484 48.2344V50.2344H345.484V48.2344H343.484ZM317.094 48.2344H315.094V50.2344H317.094V48.2344ZM317.094 37.3125V35.3125H315.094V37.3125H317.094ZM343.484 37.3125H345.484V35.3125H343.484V37.3125ZM343.484 46.2344H317.094V50.2344H343.484V46.2344ZM319.094 48.2344V37.3125H315.094V48.2344H319.094ZM317.094 39.3125H343.484V35.3125H317.094V39.3125ZM341.484 37.3125V48.2344H345.484V37.3125H341.484ZM376.625 44.625L378.309 43.5464L376.917 41.3718L375.159 43.2641L376.625 44.625ZM369.312 52.5L367.847 51.1391L367.312 51.7146V52.5H369.312ZM369.312 72V74H371.312V72H369.312ZM355.25 72H353.25V74H355.25V72ZM355.25 3.75V1.75H353.25V3.75H355.25ZM369.312 3.75H371.312V1.75H369.312V3.75ZM369.312 34.6875H367.312V40.8242L370.928 35.866L369.312 34.6875ZM375.5 26.2031L373.919 24.9784L373.901 25.0013L373.884 25.0247L375.5 26.2031ZM392.891 3.75V1.75H391.91L391.309 2.52532L392.891 3.75ZM410.188 3.75L411.75 4.99851L414.346 1.75H410.188V3.75ZM385.953 34.0781L384.391 32.8296L383.484 33.9639L384.282 35.177L385.953 34.0781ZM410.891 72V74H414.6L412.562 70.9011L410.891 72ZM394.156 72L392.472 73.0786L393.062 74H394.156V72ZM375.159 43.2641L367.847 51.1391L370.778 53.8609L378.091 45.9859L375.159 43.2641ZM367.312 52.5V72H371.312V52.5H367.312ZM369.312 70H355.25V74H369.312V70ZM357.25 72V3.75H353.25V72H357.25ZM355.25 5.75H369.312V1.75H355.25V5.75ZM367.312 3.75V34.6875H371.312V3.75H367.312ZM370.928 35.866L377.116 27.3816L373.884 25.0247L367.697 33.509L370.928 35.866ZM377.081 27.4278L394.472 4.97468L391.309 2.52532L373.919 24.9784L377.081 27.4278ZM392.891 5.75H410.188V1.75H392.891V5.75ZM408.625 2.50149L384.391 32.8296L387.516 35.3266L411.75 4.99851L408.625 2.50149ZM384.282 35.177L409.22 73.0989L412.562 70.9011L387.624 32.9792L384.282 35.177ZM410.891 70H394.156V74H410.891V70ZM395.84 70.9214L378.309 43.5464L374.941 45.7036L392.472 73.0786L395.84 70.9214ZM454.719 57.9375L456.614 57.2994L456.156 55.9375H454.719V57.9375ZM430.062 57.9375V55.9375H428.621L428.165 57.305L430.062 57.9375ZM425.375 72V74H426.817L427.272 72.6325L425.375 72ZM410.422 72L408.548 71.3023L407.543 74H410.422V72ZM435.828 3.75V1.75H434.439L433.954 3.05227L435.828 3.75ZM448.859 3.75L450.732 3.04888L450.246 1.75H448.859V3.75ZM474.406 72V74H477.29L476.279 71.2989L474.406 72ZM459.453 72L457.558 72.6381L458.016 74H459.453V72ZM433.859 46.5469L431.961 45.9165L431.088 48.5469H433.859V46.5469ZM450.922 46.5469V48.5469H453.703L452.818 45.9102L450.922 46.5469ZM442.344 21L444.24 20.3634L442.333 14.6859L440.446 20.3696L442.344 21ZM454.719 55.9375H430.062V59.9375H454.719V55.9375ZM428.165 57.305L423.478 71.3675L427.272 72.6325L431.96 58.57L428.165 57.305ZM425.375 70H410.422V74H425.375V70ZM412.296 72.6977L437.702 4.44773L433.954 3.05227L408.548 71.3023L412.296 72.6977ZM435.828 5.75H448.859V1.75H435.828V5.75ZM446.986 4.45112L472.533 72.7011L476.279 71.2989L450.732 3.04888L446.986 4.45112ZM474.406 70H459.453V74H474.406V70ZM461.349 71.3619L456.614 57.2994L452.823 58.5756L457.558 72.6381L461.349 71.3619ZM433.859 48.5469H450.922V44.5469H433.859V48.5469ZM452.818 45.9102L444.24 20.3634L440.448 21.6366L449.026 47.1835L452.818 45.9102ZM440.446 20.3696L431.961 45.9165L435.757 47.1772L444.242 21.6304L440.446 20.3696ZM531.594 3.75H533.594V1.75H531.594V3.75ZM524.562 66.4219L523.203 64.9549L523.198 64.9594L524.562 66.4219ZM479.281 49.2188H477.281V49.2315L477.281 49.2442L479.281 49.2188ZM479.281 3.75V1.75H477.281V3.75H479.281ZM493.344 3.75H495.344V1.75H493.344V3.75ZM496.531 58.5938L495.138 60.0289L495.149 60.0393L495.16 60.0495L496.531 58.5938ZM517.484 49.1719L519.484 49.2019L519.484 49.1869V49.1719H517.484ZM517.484 3.75V1.75H515.484V3.75H517.484ZM529.594 3.75V48.7031H533.594V3.75H529.594ZM529.594 48.7031C529.594 55.7176 527.413 61.0542 523.203 64.9549L525.922 67.8889C531.087 63.1021 533.594 56.6261 533.594 48.7031H529.594ZM523.198 64.9594C519.005 68.8714 513.167 70.9375 505.438 70.9375V74.9375C513.895 74.9375 520.808 72.6599 525.927 67.8843L523.198 64.9594ZM505.438 70.9375C497.828 70.9375 492.022 68.9307 487.791 65.1228L485.115 68.096C490.259 72.7256 497.11 74.9375 505.438 74.9375V70.9375ZM487.791 65.1228C483.589 61.3414 481.369 56.1137 481.281 49.1933L477.281 49.2442C477.381 57.0738 479.942 63.4399 485.115 68.096L487.791 65.1228ZM481.281 49.2188V3.75H477.281V49.2188H481.281ZM479.281 5.75H493.344V1.75H479.281V5.75ZM491.344 3.75V48.7969H495.344V3.75H491.344ZM491.344 48.7969C491.344 53.5338 492.466 57.4348 495.138 60.0289L497.924 57.1586C496.347 55.6277 495.344 52.9975 495.344 48.7969H491.344ZM495.16 60.0495C497.782 62.5193 501.293 63.6406 505.438 63.6406V59.6406C502.02 59.6406 499.593 58.7307 497.903 57.138L495.16 60.0495ZM505.438 63.6406C509.728 63.6406 513.31 62.5077 515.817 59.9131C518.307 57.3364 519.417 53.6446 519.484 49.2019L515.485 49.1418C515.426 53.0116 514.467 55.5542 512.941 57.1338C511.432 58.6954 509.054 59.6406 505.438 59.6406V63.6406ZM519.484 49.1719V3.75H515.484V49.1719H519.484ZM517.484 5.75H531.594V1.75H517.484V5.75ZM575.703 48L574.486 49.5872L574.495 49.5937L574.503 49.6L575.703 48ZM565.578 43.5L564.957 45.401L564.968 45.4046L565.578 43.5ZM554 38.8125L553.049 40.5721L553.052 40.5734L554 38.8125ZM545.469 12.0469L543.846 10.8778L543.844 10.8811L545.469 12.0469ZM554.422 5.25L553.654 3.4034L553.648 3.40561L554.422 5.25ZM580.578 5.48438L579.732 7.2964L579.744 7.30203L580.578 5.48438ZM589.438 12.9375L587.761 14.0281L587.768 14.0394L589.438 12.9375ZM592.625 23.9062V25.9062H594.625V23.9062H592.625ZM578.562 23.9062H576.562V25.9062H578.562V23.9062ZM575.609 16.6406L574.281 18.1354L574.287 18.1414L574.294 18.1473L575.609 16.6406ZM559.297 16.2188L560.501 17.8156L560.509 17.8094L560.518 17.803L559.297 16.2188ZM559.766 27.5156L558.645 29.1725L558.656 29.1797L559.766 27.5156ZM569.656 31.7344L569.078 33.6489L569.08 33.6496L569.656 31.7344ZM585.922 67.9219L587.12 69.5232L587.127 69.5178L585.922 67.9219ZM553.531 70.0781L552.712 71.9025L552.723 71.9074L553.531 70.0781ZM543.641 62.1562L541.981 63.2728L541.988 63.2834L543.641 62.1562ZM540.266 50.5312V48.5312H538.266V50.5312H540.266ZM554.375 50.5312H556.375V48.5312H554.375V50.5312ZM575.703 59.8125L576.868 61.4381L576.877 61.4318L576.886 61.4253L575.703 59.8125ZM580.516 54.0938C580.516 50.904 579.354 48.2381 576.903 46.4L574.503 49.6C575.802 50.5744 576.516 51.971 576.516 54.0938H580.516ZM576.92 46.4128C574.751 44.7496 571.088 43.1656 566.189 41.5954L564.968 45.4046C569.819 46.9594 572.906 48.3754 574.486 49.5872L576.92 46.4128ZM566.2 41.599C561.38 40.0234 557.645 38.5037 554.948 37.0516L553.052 40.5734C556.042 42.1838 560.026 43.7891 564.957 45.401L566.2 41.599ZM554.951 37.0529C547.662 33.1149 544.375 28.0611 544.375 21.8906H540.375C540.375 29.9076 544.838 36.1351 553.049 40.5721L554.951 37.0529ZM544.375 21.8906C544.375 18.6026 545.286 15.7329 547.094 13.2127L543.844 10.8811C541.527 14.1109 540.375 17.8037 540.375 21.8906H544.375ZM547.091 13.2159C548.935 10.6572 551.601 8.60185 555.195 7.09439L553.648 3.40561C549.493 5.14815 546.19 7.62405 543.846 10.8778L547.091 13.2159ZM555.19 7.09659C558.82 5.58648 562.929 4.8125 567.547 4.8125V0.8125C562.477 0.8125 557.836 1.66352 553.654 3.40341L555.19 7.09659ZM567.547 4.8125C572.175 4.8125 576.223 5.65711 579.732 7.29636L581.425 3.67239C577.308 1.74914 572.668 0.8125 567.547 0.8125V4.8125ZM579.744 7.30203C583.245 8.90935 585.892 11.1556 587.761 14.028L591.114 11.847C588.795 8.28192 585.536 5.5594 581.412 3.66672L579.744 7.30203ZM587.768 14.0394C589.664 16.9107 590.625 20.179 590.625 23.9062H594.625C594.625 19.446 593.461 15.4018 591.107 11.8356L587.768 14.0394ZM592.625 21.9062H578.562V25.9062H592.625V21.9062ZM580.562 23.9062C580.562 20.3276 579.414 17.307 576.925 15.134L574.294 18.1473C575.742 19.4117 576.562 21.2349 576.562 23.9062H580.562ZM576.938 15.1458C574.491 12.9707 571.19 12.0156 567.312 12.0156V16.0156C570.56 16.0156 572.79 16.8106 574.281 18.1354L576.938 15.1458ZM567.312 12.0156C563.617 12.0156 560.454 12.8021 558.076 14.6345L560.518 17.803C561.952 16.6979 564.133 16.0156 567.312 16.0156V12.0156ZM558.093 14.6219C555.688 16.435 554.438 18.9309 554.438 21.9375H558.438C558.438 20.1941 559.093 18.8775 560.501 17.8156L558.093 14.6219ZM554.438 21.9375C554.438 24.9636 556.007 27.3887 558.645 29.1725L560.886 25.8587C559.087 24.6426 558.438 23.3489 558.438 21.9375H554.438ZM558.656 29.1797C561.143 30.8379 564.655 32.3125 569.078 33.6489L570.235 29.8199C565.97 28.5313 562.888 27.1934 560.875 25.8515L558.656 29.1797ZM569.08 33.6496C576.946 36.0155 582.421 38.8814 585.745 42.12L588.536 39.255C584.548 35.3686 578.367 32.2658 570.232 29.8191L569.08 33.6496ZM585.745 42.12C588.998 45.2892 590.625 49.2024 590.625 54H594.625C594.625 48.1726 592.596 43.2108 588.536 39.255L585.745 42.12ZM590.625 54C590.625 59.3191 588.654 63.3523 584.717 66.3259L587.127 69.5178C592.128 65.7414 594.625 60.4934 594.625 54H590.625ZM584.724 66.3205C580.705 69.3275 575.157 70.9375 567.875 70.9375V74.9375C575.718 74.9375 582.201 73.2037 587.12 69.5232L584.724 66.3205ZM567.875 70.9375C562.872 70.9375 558.37 70.0304 554.34 68.2489L552.723 71.9074C557.317 73.9384 562.378 74.9375 567.875 74.9375V70.9375ZM554.351 68.2538C550.318 66.4417 547.333 64.0201 545.293 61.0291L541.988 63.2834C544.51 66.9799 548.12 69.8396 552.712 71.9025L554.351 68.2538ZM545.3 61.0397C543.293 58.0567 542.266 54.5785 542.266 50.5312H538.266C538.266 55.2965 539.489 59.5683 541.981 63.2728L545.3 61.0397ZM540.266 52.5312H554.375V48.5312H540.266V52.5312ZM552.375 50.5312C552.375 54.708 553.64 58.1723 556.466 60.5377C559.225 62.846 563.145 63.8281 567.875 63.8281V59.8281C563.605 59.8281 560.775 58.9274 559.034 57.4701C557.36 56.0699 556.375 53.8857 556.375 50.5312H552.375ZM567.875 63.8281C571.457 63.8281 574.532 63.1126 576.868 61.4381L574.538 58.1869C573.125 59.1999 570.981 59.8281 567.875 59.8281V63.8281ZM576.886 61.4253C579.303 59.6527 580.516 57.1322 580.516 54.0938H576.516C576.516 55.9303 575.853 57.2223 574.52 58.1997L576.886 61.4253ZM640.719 57.9375L642.614 57.2994L642.156 55.9375H640.719V57.9375ZM616.062 57.9375V55.9375H614.621L614.165 57.305L616.062 57.9375ZM611.375 72V74H612.817L613.272 72.6325L611.375 72ZM596.422 72L594.548 71.3023L593.543 74H596.422V72ZM621.828 3.75V1.75H620.439L619.954 3.05227L621.828 3.75ZM634.859 3.75L636.732 3.04888L636.246 1.75H634.859V3.75ZM660.406 72V74H663.29L662.279 71.2989L660.406 72ZM645.453 72L643.558 72.6381L644.016 74H645.453V72ZM619.859 46.5469L617.961 45.9165L617.088 48.5469H619.859V46.5469ZM636.922 46.5469V48.5469H639.703L638.818 45.9102L636.922 46.5469ZM628.344 21L630.24 20.3634L628.333 14.6859L626.446 20.3696L628.344 21ZM640.719 55.9375H616.062V59.9375H640.719V55.9375ZM614.165 57.305L609.478 71.3675L613.272 72.6325L617.96 58.57L614.165 57.305ZM611.375 70H596.422V74H611.375V70ZM598.296 72.6977L623.702 4.44773L619.954 3.05227L594.548 71.3023L598.296 72.6977ZM621.828 5.75H634.859V1.75H621.828V5.75ZM632.986 4.45112L658.533 72.7011L662.279 71.2989L636.732 3.04888L632.986 4.45112ZM660.406 70H645.453V74H660.406V70ZM647.349 71.3619L642.614 57.2994L638.823 58.5756L643.558 72.6381L647.349 71.3619ZM619.859 48.5469H636.922V44.5469H619.859V48.5469ZM638.818 45.9102L630.24 20.3634L626.448 21.6366L635.026 47.1835L638.818 45.9102ZM626.446 20.3696L617.961 45.9165L621.757 47.1772L630.242 21.6304L626.446 20.3696ZM692.047 47.0156L693.827 46.1039L693.27 45.0156H692.047V47.0156ZM680.844 47.0156V45.0156H678.844V47.0156H680.844ZM680.844 72V74H682.844V72H680.844ZM666.781 72H664.781V74H666.781V72ZM666.781 3.75V1.75H664.781V3.75H666.781ZM714.312 36.0469L712.636 34.9569L712.633 34.9611L714.312 36.0469ZM705.172 43.4531L704.351 41.6295L702.407 42.5049L703.404 44.3889L705.172 43.4531ZM719.938 71.3438H721.938V70.847L721.705 70.408L719.938 71.3438ZM719.938 72V74H721.938V72H719.938ZM704.844 72L703.064 72.9118L703.621 74H704.844V72ZM680.844 35.625H678.844V37.625H680.844V35.625ZM700.391 32.9531L701.744 34.4255L701.751 34.4196L701.757 34.4137L700.391 32.9531ZM700.531 17.9062L699.105 19.3083L699.111 19.3144L699.117 19.3205L700.531 17.9062ZM680.844 15.1406V13.1406H678.844V15.1406H680.844ZM692.047 45.0156H680.844V49.0156H692.047V45.0156ZM678.844 47.0156V72H682.844V47.0156H678.844ZM680.844 70H666.781V74H680.844V70ZM668.781 72V3.75H664.781V72H668.781ZM666.781 5.75H692.141V1.75H666.781V5.75ZM692.141 5.75C699.933 5.75 705.635 7.48879 709.527 10.6861L712.066 7.59517C707.209 3.60496 700.474 1.75 692.141 1.75V5.75ZM709.527 10.6861C713.364 13.8372 715.359 18.3046 715.359 24.375H719.359C719.359 17.3204 716.98 11.6316 712.066 7.59517L709.527 10.6861ZM715.359 24.375C715.359 28.7407 714.409 32.2287 712.636 34.9569L715.989 37.1369C718.279 33.6151 719.359 29.3218 719.359 24.375H715.359ZM712.633 34.9611C710.884 37.6669 708.17 39.9091 704.351 41.6295L705.993 45.2767C710.361 43.3096 713.741 40.6144 715.992 37.1327L712.633 34.9611ZM703.404 44.3889L718.17 72.2795L721.705 70.408L706.939 42.5173L703.404 44.3889ZM717.938 71.3438V72H721.938V71.3438H717.938ZM719.938 70H704.844V74H719.938V70ZM706.624 71.0882L693.827 46.1039L690.267 47.9274L703.064 72.9118L706.624 71.0882ZM680.844 37.625H692.188V33.625H680.844V37.625ZM692.188 37.625C696.046 37.625 699.327 36.648 701.744 34.4255L699.037 31.4808C697.58 32.8207 695.392 33.625 692.188 33.625V37.625ZM701.757 34.4137C704.175 32.1517 705.297 29.0959 705.297 25.5H701.297C701.297 28.2166 700.481 30.1296 699.024 31.4926L701.757 34.4137ZM705.297 25.5C705.297 21.8827 704.248 18.7948 701.945 16.492L699.117 19.3205C700.502 20.7052 701.297 22.6798 701.297 25.5H705.297ZM701.957 16.5042C699.625 14.1312 696.21 13.1406 692.141 13.1406V17.1406C695.634 17.1406 697.813 17.9938 699.105 19.3083L701.957 16.5042ZM692.141 13.1406H680.844V17.1406H692.141V13.1406ZM678.844 15.1406V35.625H682.844V15.1406H678.844Z" fill="#0114C4" fill-opacity="0.25"/>
</svg>
